<svg id="Слой_1" data-name="Слой 1" xmlns="http://www.w3.org/2000/svg" viewBox="0 0 210.48 219.85"><defs><style>.cls-1,.cls-4{fill:#fff;}.cls-2,.cls-3{fill:#343a40;}.cls-3,.cls-4{stroke:#fff;stroke-miterlimit:10;stroke-width:10px;}</style></defs><title>backgroundReg</title><rect class="cls-1" x="3" y="54.85" width="162" height="162" rx="18.1" ry="18.1"/><path class="cls-2" d="M187.9,47A15.12,15.12,0,0,1,203,62.1V187.9A15.12,15.12,0,0,1,187.9,203H62.1A15.12,15.12,0,0,1,47,187.9V62.1A15.12,15.12,0,0,1,62.1,47H187.9m0-6H62.1A21.1,21.1,0,0,0,41,62.1V187.9A21.1,21.1,0,0,0,62.1,209H187.9A21.1,21.1,0,0,0,209,187.9V62.1A21.1,21.1,0,0,0,187.9,41Z" transform="translate(-41 10.85)"/><polyline class="cls-3" points="81 42.85 128 114.85 206 23.85"/><polygon class="cls-4" points="87 22.85 131 84.85 198 6.85 87 22.85"/></svg>