<svg id="Слой_1" data-name="Слой 1" xmlns="http://www.w3.org/2000/svg" viewBox="0 0 45 28.33"><defs><style>.cls-1,.cls-2,.cls-4{fill:#fff;}.cls-1,.cls-4{stroke:#343a40;stroke-miterlimit:10;}.cls-1{stroke-width:2px;}.cls-3{fill:#343a40;}</style></defs><title>consultationWhite</title><path class="cls-1" d="M34,33l8.49,4.24a.78.78,0,0,0,1.1-.89L42,30" transform="translate(-3 -10)"/><path class="cls-1" d="M6.54,25,5.31,30.59a.61.61,0,0,0,.92.65L13,27" transform="translate(-3 -10)"/><path class="cls-2" d="M33,33c-7.72,0-14-4.26-14-9.5S25.28,14,33,14s14,4.26,14,9.5S40.72,33,33,33Z" transform="translate(-3 -10)"/><path class="cls-3" d="M33,15c7,0,13,3.89,13,8.5S40,32,33,32s-13-3.89-13-8.5S26,15,33,15m0-2c-8.28,0-15,4.7-15,10.5S24.72,34,33,34s15-4.7,15-10.5S41.28,13,33,13Z" transform="translate(-3 -10)"/><path class="cls-2" d="M18,28A18.33,18.33,0,0,1,7,24.75,6.87,6.87,0,0,1,4,19.5C4,14.81,10.28,11,18,11s14,3.81,14,8.5S25.72,28,18,28Z" transform="translate(-3 -10)"/><path class="cls-3" d="M18,12c7,0,13,3.43,13,7.5S25,27,18,27A17.32,17.32,0,0,1,7.64,24,5.92,5.92,0,0,1,5,19.5C5,15.43,11,12,18,12m0-2C9.72,10,3,14.25,3,19.5a7.76,7.76,0,0,0,3.43,6A19.31,19.31,0,0,0,18,29c8.28,0,15-4.25,15-9.5S26.28,10,18,10Z" transform="translate(-3 -10)"/><rect class="cls-4" x="13.5" y="8.5" width="2" height="2"/><rect class="cls-4" x="18.5" y="8.5" width="2" height="2"/><rect class="cls-4" x="8.5" y="8.5" width="2" height="2"/></svg>