<svg id="Слой_1" data-name="Слой 1" xmlns="http://www.w3.org/2000/svg" viewBox="0 0 39 20"><defs><style>.cls-1,.cls-2{fill:#343a40;}.cls-1{stroke:#fff;stroke-miterlimit:10;stroke-width:2px;}.cls-3{fill:#fff;}</style></defs><title>groupWhite</title><path class="cls-1" d="M44,32.33c0-5.89-3.36-10.67-7.5-10.67S29,26.44,29,32.33Z" transform="translate(-6 -15)"/><path class="cls-1" d="M22,32.33c0-5.89-3.36-10.67-7.5-10.67S7,26.44,7,32.33Z" transform="translate(-6 -15)"/><circle class="cls-2" cx="31" cy="6" r="5"/><path class="cls-3" d="M37,17a4,4,0,1,1-4,4,4,4,0,0,1,4-4m0-2a6,6,0,1,0,6,6,6,6,0,0,0-6-6Z" transform="translate(-6 -15)"/><path class="cls-1" d="M33,34c0-6.63-3.36-12-7.5-12S18,27.37,18,34Z" transform="translate(-6 -15)"/><circle class="cls-2" cx="8" cy="6" r="5"/><path class="cls-3" d="M14,17a4,4,0,1,1-4,4,4,4,0,0,1,4-4m0-2a6,6,0,1,0,6,6,6,6,0,0,0-6-6Z" transform="translate(-6 -15)"/><circle class="cls-2" cx="19.5" cy="5.5" r="4.5"/><path class="cls-3" d="M25.5,17A3.5,3.5,0,1,1,22,20.5,3.5,3.5,0,0,1,25.5,17m0-2A5.5,5.5,0,1,0,31,20.5,5.5,5.5,0,0,0,25.5,15Z" transform="translate(-6 -15)"/></svg>