<svg id="Слой_1" data-name="Слой 1" xmlns="http://www.w3.org/2000/svg" viewBox="0 0 38.4 35.56"><defs><style>.cls-1{fill:#fff;}.cls-2,.cls-3{fill:#343a40;}.cls-3{stroke:#fff;stroke-miterlimit:10;}</style></defs><title>previewWhite</title><path class="cls-1" d="M20,32A12,12,0,1,1,32,20,12,12,0,0,1,20,32Z" transform="translate(-7 -7)"/><path class="cls-2" d="M20,9A11,11,0,1,1,9,20,11,11,0,0,1,20,9m0-2A13,13,0,1,0,33,20,13,13,0,0,0,20,7Z" transform="translate(-7 -7)"/><path class="cls-1" d="M19.5,11.5s9,0,9,9" transform="translate(-7 -7)"/><path class="cls-2" d="M19.5,11.5a9.26,9.26,0,0,1,3.58.42,8.24,8.24,0,0,1,3.18,1.84,6.91,6.91,0,0,1,1.93,3.14,8.09,8.09,0,0,1,.35,1.79,16.17,16.17,0,0,1,0,1.8c-.13-.59-.17-1.18-.32-1.75a10.53,10.53,0,0,0-.54-1.65,7.5,7.5,0,0,0-1.89-2.79,9.45,9.45,0,0,0-2.87-1.84A15.12,15.12,0,0,0,19.5,11.5Z" transform="translate(-7 -7)"/><path class="cls-3" d="M33.44,26.43c.67,2.47,3.13,6.73,11,13.22a1.22,1.22,0,0,1,.09,1.81l-.25.25a1.23,1.23,0,0,1-1.65.06c-7.89-6.64-12.55-8.73-15-9.34a1.21,1.21,0,0,1-.57-2l4.35-4.52A1.22,1.22,0,0,1,33.44,26.43Z" transform="translate(-7 -7)"/></svg>