<svg id="Слой_1" data-name="Слой 1" xmlns="http://www.w3.org/2000/svg" viewBox="0 0 152 154"><defs><style>.cls-1,.cls-3,.cls-5,.cls-6{fill:#fff;}.cls-2{fill:none;}.cls-3,.cls-4,.cls-5,.cls-6{stroke:#000;stroke-miterlimit:10;}.cls-3{stroke-width:3px;}.cls-5{stroke-width:4px;}.cls-6{stroke-width:5px;}</style></defs><title>logoblack</title><polyline class="cls-1" points="0 0 152 0 152 154 0 154"/><line class="cls-2" x1="2" y1="154" x2="2" y2="4"/><rect class="cls-3" x="10.5" y="40.5" width="132" height="78" rx="12" ry="12"/><rect class="cls-4" x="46.5" y="24.5" width="62" height="32" rx="12" ry="12"/><rect class="cls-4" x="22.5" y="35.5" width="15" height="5.92"/><circle class="cls-5" cx="76.5" cy="79.5" r="50"/><circle class="cls-6" cx="76" cy="80" r="38"/><path class="cls-1" d="M98.5,76.5s1-22-20.5-20"/><path d="M98.25,76.49c-1.73-2.7-3-5-4.37-7.06A33.73,33.73,0,0,0,90,64.3a22.12,22.12,0,0,0-4.73-3.78c-2-1.2-4.37-2.28-7.25-3.78v-.5l2.08-.18c.7,0,1.4-.06,2.1,0a20.38,20.38,0,0,1,4.17.62,15.5,15.5,0,0,1,7.3,4.19,18.64,18.64,0,0,1,4.08,7.36,24.2,24.2,0,0,1,1,8.29Z"/></svg>