<svg id="Слой_1" data-name="Слой 1" xmlns="http://www.w3.org/2000/svg" viewBox="0 0 172.5 171"><defs><style>.cls-1,.cls-4,.cls-5{fill:#343a40;}.cls-2{fill:none;}.cls-3,.cls-6{fill:#fff;}.cls-3,.cls-4,.cls-5{stroke:#fff;stroke-miterlimit:10;}.cls-4{stroke-width:3px;}.cls-5{stroke-width:4px;}</style></defs><title>logo</title><rect class="cls-1" width="172.5" height="171"/><line class="cls-2" x1="11" y1="163.25" x2="11" y2="13.25"/><rect class="cls-3" x="19.5" y="49.75" width="132" height="78" rx="12" ry="12"/><rect class="cls-3" x="55.5" y="33.75" width="62" height="32" rx="12" ry="12"/><rect class="cls-3" x="31.5" y="44.75" width="15" height="7"/><circle class="cls-4" cx="85.5" cy="88.75" r="50"/><circle class="cls-5" cx="85" cy="89.25" r="38"/><path class="cls-1" d="M98.5,77s1-22.55-19.75-20.5" transform="translate(9 9.25)"/><path class="cls-6" d="M98.4,77A63.55,63.55,0,0,0,96,69.26a27.67,27.67,0,0,0-1.63-3.46,16.48,16.48,0,0,0-2.1-3,15.08,15.08,0,0,0-5.83-4.26,35.11,35.11,0,0,0-7.73-1.91l0-.2a21.69,21.69,0,0,1,8.21.6,16.09,16.09,0,0,1,3.77,1.72,14.75,14.75,0,0,1,3.12,2.74,19.35,19.35,0,0,1,3.72,7.35,28.78,28.78,0,0,1,1,8.18Z" transform="translate(9 9.25)"/></svg>